<svg width="21" height="21" viewBox="0 0 21 21" fill="none" xmlns="http://www.w3.org/2000/svg">
<g clip-path="url(#clip0_143_4)">
<path d="M21.0002 10.5642C21.0002 4.72879 16.2988 -0.00146484 10.5002 -0.00146484C4.69893 -0.000152344 -0.00244141 4.72879 -0.00244141 10.5655C-0.00244141 15.8378 3.83793 20.2084 8.85693 21.0012V13.6183H6.19256V10.5655H8.85956V8.23579C8.85956 5.58847 10.428 4.12635 12.8259 4.12635C13.9757 4.12635 15.1766 4.33241 15.1766 4.33241V6.93116H13.8523C12.549 6.93116 12.1421 7.74622 12.1421 8.58229V10.5642H15.0532L14.5886 13.617H12.1408V20.9998C17.1598 20.2071 21.0002 15.8365 21.0002 10.5642Z" fill="#B8A9EB"/>
</g>
<defs>
<clipPath id="clip0_143_4">
<rect width="21" height="21" fill="white"/>
</clipPath>
</defs>
</svg>
