<svg width="20" height="23" viewBox="0 0 20 23" fill="none" xmlns="http://www.w3.org/2000/svg">
<path d="M10 9.04746C9.52907 9.04764 9.06877 9.18744 8.67729 9.44921C8.28581 9.71097 7.98074 10.0829 7.80065 10.518C7.62055 10.9532 7.57353 11.4319 7.66551 11.8938C7.75749 12.3557 7.98435 12.7799 8.31741 13.1128C8.65047 13.4457 9.07477 13.6724 9.53666 13.7643C9.99856 13.8561 10.4773 13.8089 10.9124 13.6286C11.3474 13.4483 11.7193 13.1431 11.9809 12.7515C12.2425 12.36 12.3821 11.8996 12.3821 11.4287C12.3817 10.7971 12.1305 10.1916 11.6839 9.74512C11.2372 9.29862 10.6316 9.0477 10 9.04746ZM15.5674 7.2171C15.4462 6.90989 15.2631 6.63086 15.0296 6.39733C14.7961 6.16379 14.517 5.98074 14.2098 5.85951C13.2723 5.48942 11.0402 5.57246 10 5.57246C8.95982 5.57246 6.72991 5.4863 5.78973 5.85951C5.48252 5.98074 5.20349 6.16379 4.96996 6.39733C4.73642 6.63086 4.55337 6.90989 4.43214 7.2171C4.0625 8.1546 4.14509 10.389 4.14509 11.4282C4.14509 12.4675 4.0625 14.6992 4.43393 15.6399C4.55515 15.9471 4.73821 16.2261 4.97174 16.4596C5.20528 16.6932 5.4843 16.8762 5.79152 16.9974C6.72902 17.3675 8.96116 17.2845 10.0018 17.2845C11.0424 17.2845 13.2714 17.3707 14.2116 16.9974C14.5188 16.8762 14.7978 16.6932 15.0314 16.4596C15.2649 16.2261 15.448 15.9471 15.5692 15.6399C15.942 14.7024 15.8563 12.468 15.8563 11.4287C15.8563 10.3894 15.942 8.15817 15.5692 7.21755L15.5674 7.2171ZM10 15.0894C9.27598 15.0894 8.56822 14.8747 7.96622 14.4725C7.36421 14.0702 6.89501 13.4985 6.61794 12.8296C6.34087 12.1607 6.26838 11.4246 6.40963 10.7145C6.55087 10.0044 6.89952 9.35215 7.41148 8.84019C7.92344 8.32823 8.57572 7.97958 9.28583 7.83833C9.99594 7.69709 10.732 7.76958 11.4009 8.04665C12.0698 8.32372 12.6415 8.79292 13.0438 9.39493C13.446 9.99693 13.6607 10.7047 13.6607 11.4287C13.6613 11.9096 13.567 12.3859 13.3833 12.8303C13.1995 13.2747 12.9299 13.6785 12.5898 14.0185C12.2498 14.3586 11.846 14.6282 11.4016 14.8119C10.9572 14.9957 10.4809 15.09 10 15.0894ZM13.8116 8.46889C13.6426 8.46898 13.4773 8.41894 13.3368 8.3251C13.1962 8.23127 13.0866 8.09785 13.0219 7.94172C12.9571 7.7856 12.9401 7.61378 12.9731 7.448C13.006 7.28222 13.0873 7.12993 13.2068 7.01038C13.3263 6.89084 13.4785 6.80942 13.6443 6.77641C13.8101 6.7434 13.9819 6.7603 14.138 6.82496C14.2942 6.88962 14.4277 6.99914 14.5216 7.13966C14.6155 7.28019 14.6656 7.44541 14.6656 7.61442C14.6661 7.72666 14.6444 7.83789 14.6018 7.94172C14.5592 8.04556 14.4965 8.13996 14.4173 8.21951C14.3381 8.29906 14.244 8.3622 14.1404 8.4053C14.0368 8.4484 13.9256 8.47062 13.8134 8.47067L13.8116 8.46889ZM17.8571 1.42871H2.14286C1.57454 1.42871 1.02949 1.65447 0.627628 2.05634C0.225765 2.4582 0 3.00325 0 3.57157V19.2858C0 19.8542 0.225765 20.3992 0.627628 20.8011C1.02949 21.2029 1.57454 21.4287 2.14286 21.4287H17.8571C18.4255 21.4287 18.9705 21.2029 19.3724 20.8011C19.7742 20.3992 20 19.8542 20 19.2858V3.57157C20 3.00325 19.7742 2.4582 19.3724 2.05634C18.9705 1.65447 18.4255 1.42871 17.8571 1.42871ZM17.0929 14.3751C17.0353 15.5193 16.7741 16.5332 15.9388 17.3662C15.1036 18.1992 14.0906 18.4657 12.9478 18.5202C11.7688 18.5867 8.23393 18.5867 7.05491 18.5202C5.91071 18.4626 4.90045 18.201 4.06384 17.3662C3.22723 16.5314 2.96429 15.5171 2.90982 14.3751C2.8433 13.1957 2.8433 9.66041 2.90982 8.48228C2.96741 7.33808 3.22545 6.32425 4.06384 5.49121C4.90223 4.65817 5.91518 4.39478 7.05491 4.34032C8.23393 4.2738 11.7688 4.2738 12.9478 4.34032C14.092 4.39791 15.1054 4.65951 15.9388 5.49433C16.7723 6.32916 17.0384 7.34344 17.0929 8.48764C17.1594 9.66264 17.1594 13.1948 17.0929 14.3751Z" fill="#AE9CE9"/>
</svg>
