<svg width="20" height="23" viewBox="0 0 20 23" fill="none" xmlns="http://www.w3.org/2000/svg">
<g clip-path="url(#clip0_641_11)">
<path d="M10 9.04734C9.52907 9.04752 9.06877 9.18732 8.67729 9.44909C8.28581 9.71085 7.98074 10.0828 7.80065 10.5179C7.62055 10.9531 7.57353 11.4318 7.66551 11.8937C7.75749 12.3556 7.98435 12.7798 8.31741 13.1127C8.65047 13.4456 9.07477 13.6723 9.53666 13.7642C9.99856 13.856 10.4773 13.8088 10.9124 13.6285C11.3474 13.4482 11.7193 13.143 11.9809 12.7514C12.2425 12.3599 12.3821 11.8995 12.3821 11.4286C12.3817 10.797 12.1305 10.1915 11.6839 9.745C11.2372 9.2985 10.6316 9.04758 10 9.04734V9.04734ZM15.5674 7.21698C15.4462 6.90977 15.2631 6.63074 15.0296 6.39721C14.7961 6.16367 14.517 5.98062 14.2098 5.85939C13.2723 5.4893 11.0402 5.57234 10 5.57234C8.95982 5.57234 6.72991 5.48618 5.78973 5.85939C5.48252 5.98062 5.20349 6.16367 4.96996 6.39721C4.73642 6.63074 4.55337 6.90977 4.43214 7.21698C4.0625 8.15448 4.14509 10.3889 4.14509 11.4281C4.14509 12.4674 4.0625 14.6991 4.43393 15.6398C4.55515 15.947 4.73821 16.226 4.97174 16.4595C5.20528 16.6931 5.4843 16.8761 5.79152 16.9973C6.72902 17.3674 8.96116 17.2844 10.0018 17.2844C11.0424 17.2844 13.2714 17.3706 14.2116 16.9973C14.5188 16.8761 14.7978 16.6931 15.0314 16.4595C15.2649 16.226 15.448 15.947 15.5692 15.6398C15.942 14.7023 15.8563 12.4679 15.8563 11.4286C15.8563 10.3893 15.942 8.15805 15.5692 7.21743L15.5674 7.21698ZM10 15.0893C9.27598 15.0893 8.56822 14.8746 7.96622 14.4724C7.36421 14.0701 6.89501 13.4984 6.61794 12.8295C6.34087 12.1606 6.26838 11.4245 6.40963 10.7144C6.55087 10.0043 6.89952 9.35203 7.41148 8.84007C7.92344 8.32811 8.57572 7.97946 9.28583 7.83821C9.99594 7.69697 10.732 7.76946 11.4009 8.04653C12.0698 8.3236 12.6415 8.7928 13.0438 9.39481C13.446 9.99681 13.6607 10.7046 13.6607 11.4286C13.6613 11.9095 13.567 12.3858 13.3833 12.8302C13.1995 13.2746 12.9299 13.6784 12.5898 14.0184C12.2498 14.3585 11.846 14.6281 11.4016 14.8118C10.9572 14.9956 10.4809 15.0899 10 15.0893V15.0893ZM13.8116 8.46877C13.6426 8.46886 13.4773 8.41882 13.3368 8.32498C13.1962 8.23115 13.0866 8.09773 13.0219 7.9416C12.9571 7.78548 12.9401 7.61366 12.9731 7.44788C13.006 7.2821 13.0873 7.12981 13.2068 7.01026C13.3263 6.89072 13.4785 6.8093 13.6443 6.77629C13.8101 6.74328 13.9819 6.76018 14.138 6.82484C14.2942 6.8895 14.4277 6.99902 14.5216 7.13954C14.6155 7.28007 14.6656 7.44529 14.6656 7.6143C14.6661 7.72654 14.6444 7.83777 14.6018 7.9416C14.5592 8.04544 14.4965 8.13984 14.4173 8.21939C14.3381 8.29894 14.244 8.36208 14.1404 8.40518C14.0368 8.44828 13.9256 8.4705 13.8134 8.47055L13.8116 8.46877ZM17.8571 1.42859H2.14286C1.57454 1.42859 1.02949 1.65435 0.627628 2.05622C0.225765 2.45808 0 3.00313 0 3.57145L0 19.2857C0 19.8541 0.225765 20.3991 0.627628 20.801C1.02949 21.2028 1.57454 21.4286 2.14286 21.4286H17.8571C18.4255 21.4286 18.9705 21.2028 19.3724 20.801C19.7742 20.3991 20 19.8541 20 19.2857V3.57145C20 3.00313 19.7742 2.45808 19.3724 2.05622C18.9705 1.65435 18.4255 1.42859 17.8571 1.42859V1.42859ZM17.0929 14.375C17.0353 15.5192 16.7741 16.5331 15.9388 17.3661C15.1036 18.1991 14.0906 18.4656 12.9478 18.5201C11.7688 18.5866 8.23393 18.5866 7.05491 18.5201C5.91071 18.4625 4.90045 18.2009 4.06384 17.3661C3.22723 16.5313 2.96429 15.517 2.90982 14.375C2.8433 13.1956 2.8433 9.66029 2.90982 8.48216C2.96741 7.33796 3.22545 6.32413 4.06384 5.49109C4.90223 4.65805 5.91518 4.39466 7.05491 4.3402C8.23393 4.27368 11.7688 4.27368 12.9478 4.3402C14.092 4.39779 15.1054 4.65939 15.9388 5.49421C16.7723 6.32904 17.0384 7.34332 17.0929 8.48752C17.1594 9.66252 17.1594 13.1947 17.0929 14.375Z" fill="#251A59"/>
</g>
<defs>
<clipPath id="clip0_641_11">
<rect width="20" height="22.8571" fill="white"/>
</clipPath>
</defs>
</svg>
