<svg width="26" height="26" viewBox="0 0 26 26" fill="none" xmlns="http://www.w3.org/2000/svg">
<path d="M13.0002 7.5835C10.0102 7.5835 7.5835 10.0102 7.5835 13.0002C7.5835 15.9902 10.0102 18.4168 13.0002 18.4168C15.9902 18.4168 18.4168 15.9902 18.4168 13.0002C18.4168 10.0102 15.9902 7.5835 13.0002 7.5835ZM2.16683 14.0835H4.3335C4.92933 14.0835 5.41683 13.596 5.41683 13.0002C5.41683 12.4043 4.92933 11.9168 4.3335 11.9168H2.16683C1.571 11.9168 1.0835 12.4043 1.0835 13.0002C1.0835 13.596 1.571 14.0835 2.16683 14.0835ZM21.6668 14.0835H23.8335C24.4293 14.0835 24.9168 13.596 24.9168 13.0002C24.9168 12.4043 24.4293 11.9168 23.8335 11.9168H21.6668C21.071 11.9168 20.5835 12.4043 20.5835 13.0002C20.5835 13.596 21.071 14.0835 21.6668 14.0835ZM11.9168 2.16683V4.3335C11.9168 4.92933 12.4043 5.41683 13.0002 5.41683C13.596 5.41683 14.0835 4.92933 14.0835 4.3335V2.16683C14.0835 1.571 13.596 1.0835 13.0002 1.0835C12.4043 1.0835 11.9168 1.571 11.9168 2.16683ZM11.9168 21.6668V23.8335C11.9168 24.4293 12.4043 24.9168 13.0002 24.9168C13.596 24.9168 14.0835 24.4293 14.0835 23.8335V21.6668C14.0835 21.071 13.596 20.5835 13.0002 20.5835C12.4043 20.5835 11.9168 21.071 11.9168 21.6668ZM6.48933 4.96183C6.06683 4.53933 5.3735 4.53933 4.96183 4.96183C4.53933 5.38433 4.53933 6.07766 4.96183 6.48933L6.11016 7.63766C6.53266 8.06016 7.226 8.06016 7.63766 7.63766C8.04933 7.21516 8.06016 6.52183 7.63766 6.11016L6.48933 4.96183ZM19.8902 18.3627C19.4677 17.9402 18.7743 17.9402 18.3627 18.3627C17.9402 18.7852 17.9402 19.4785 18.3627 19.8902L19.511 21.0385C19.9335 21.461 20.6268 21.461 21.0385 21.0385C21.461 20.616 21.461 19.9227 21.0385 19.511L19.8902 18.3627ZM21.0385 6.48933C21.461 6.06683 21.461 5.3735 21.0385 4.96183C20.616 4.53933 19.9227 4.53933 19.511 4.96183L18.3627 6.11016C17.9402 6.53266 17.9402 7.226 18.3627 7.63766C18.7852 8.04933 19.4785 8.06016 19.8902 7.63766L21.0385 6.48933ZM7.63766 19.8902C8.06016 19.4677 8.06016 18.7743 7.63766 18.3627C7.21516 17.9402 6.52183 17.9402 6.11016 18.3627L4.96183 19.511C4.53933 19.9335 4.53933 20.6268 4.96183 21.0385C5.38433 21.4502 6.07766 21.461 6.48933 21.0385L7.63766 19.8902Z" fill="#AE9CE9"/>
</svg>
