<svg width="63" height="62" viewBox="0 0 63 62" fill="none" xmlns="http://www.w3.org/2000/svg">
<path d="M1 32C1 22.5719 1 17.8579 3.92893 14.9289C6.85786 12 11.5719 12 21 12H63V42C63 51.4281 63 56.1421 60.0711 59.0711C57.1421 62 52.4281 62 43 62H1V32Z" fill="white"/>
<path d="M0 20C0 10.5719 0 5.85786 2.92893 2.92893C5.85786 0 10.5719 0 20 0H60V40C60 49.4281 60 54.1421 57.0711 57.0711C54.1421 60 49.4281 60 40 60H0V20Z" fill="#100E1D"/>
<path d="M29.75 20V41H24.89V32.39H15.35V41H10.49V20H15.35V28.28H24.89V20H29.75ZM41.0185 23.96H34.2985V20H52.5985V23.96H45.8785V41H41.0185V23.96Z" fill="white"/>
</svg>
