<svg width="20" height="21" viewBox="0 0 20 21" fill="none" xmlns="http://www.w3.org/2000/svg">
<path d="M6.68952 16.0242C6.68952 16.1049 6.59677 16.1694 6.47984 16.1694C6.34677 16.1815 6.25403 16.117 6.25403 16.0242C6.25403 15.9436 6.34677 15.8791 6.46371 15.8791C6.58468 15.867 6.68952 15.9315 6.68952 16.0242ZM5.43548 15.8428C5.40726 15.9234 5.4879 16.0162 5.60887 16.0404C5.71371 16.0807 5.83468 16.0404 5.85887 15.9597C5.88306 15.8791 5.80645 15.7863 5.68548 15.7501C5.58064 15.7218 5.46371 15.7621 5.43548 15.8428ZM7.21774 15.7742C7.10081 15.8025 7.02016 15.8791 7.03226 15.9718C7.04435 16.0525 7.14919 16.1049 7.27016 16.0767C7.3871 16.0484 7.46774 15.9718 7.45564 15.8912C7.44355 15.8146 7.33468 15.7621 7.21774 15.7742ZM9.87097 0.322632C4.27823 0.322632 0 4.5686 0 10.1613C0 14.6331 2.81452 18.4597 6.83468 19.8065C7.35081 19.8992 7.53226 19.5807 7.53226 19.3186C7.53226 19.0686 7.52016 17.6896 7.52016 16.8428C7.52016 16.8428 4.69758 17.4476 4.10484 15.6412C4.10484 15.6412 3.64516 14.4678 2.98387 14.1654C2.98387 14.1654 2.06048 13.5323 3.04839 13.5444C3.04839 13.5444 4.05242 13.6251 4.60484 14.5847C5.4879 16.1412 6.96774 15.6936 7.54435 15.4275C7.6371 14.7823 7.89919 14.3347 8.18952 14.0686C5.93548 13.8186 3.66129 13.492 3.66129 9.61295C3.66129 8.50408 3.96774 7.94763 4.6129 7.23795C4.50806 6.97586 4.16532 5.89521 4.71774 4.50005C5.56048 4.23795 7.5 5.58876 7.5 5.58876C8.30645 5.36295 9.17339 5.24602 10.0323 5.24602C10.8911 5.24602 11.7581 5.36295 12.5645 5.58876C12.5645 5.58876 14.504 4.23392 15.3468 4.50005C15.8992 5.89924 15.5565 6.97586 15.4516 7.23795C16.0968 7.95166 16.4919 8.50812 16.4919 9.61295C16.4919 13.5041 14.1169 13.8146 11.8629 14.0686C12.2339 14.3871 12.5484 14.992 12.5484 15.9396C12.5484 17.2984 12.5363 18.9799 12.5363 19.3105C12.5363 19.5726 12.7218 19.8912 13.2339 19.7984C17.2661 18.4597 20 14.6331 20 10.1613C20 4.5686 15.4637 0.322632 9.87097 0.322632ZM3.91935 14.2299C3.86694 14.2702 3.87903 14.363 3.94758 14.4396C4.0121 14.5041 4.10484 14.5323 4.15726 14.4799C4.20968 14.4396 4.19758 14.3468 4.12903 14.2702C4.06452 14.2057 3.97177 14.1775 3.91935 14.2299ZM3.48387 13.9033C3.45565 13.9557 3.49597 14.0202 3.57661 14.0605C3.64113 14.1009 3.72177 14.0888 3.75 14.0323C3.77823 13.9799 3.7379 13.9154 3.65726 13.8751C3.57661 13.8509 3.5121 13.863 3.48387 13.9033ZM4.79032 15.3388C4.72581 15.3912 4.75 15.5121 4.84274 15.5888C4.93548 15.6815 5.05242 15.6936 5.10484 15.6291C5.15726 15.5767 5.13306 15.4557 5.05242 15.3791C4.96371 15.2863 4.84274 15.2742 4.79032 15.3388ZM4.33065 14.746C4.26613 14.7863 4.26613 14.8912 4.33065 14.9839C4.39516 15.0767 4.50403 15.117 4.55645 15.0767C4.62097 15.0242 4.62097 14.9194 4.55645 14.8267C4.5 14.7339 4.39516 14.6936 4.33065 14.746Z" fill="#251A59"/>
</svg>
